<svg width="587" height="394" viewBox="0 0 587 394" fill="none" xmlns="http://www.w3.org/2000/svg">
<g id="Group 2" filter="url(#filter0_d_0_372)">
<g id="Group 40">
<g id="Group 52">
<rect id="Rectangle Copy 3" x="4.5" y="2.5" width="578" height="385" rx="26" fill="#777777"/>
<rect id="Rectangle Copy 5" x="6.5" y="4.5" width="574.23" height="381.865" rx="25" fill="url(#paint0_linear_0_372)"/>
<g id="GoViral - Wordpress Theme">
<rect id="Mask Copy" opacity="0.1" x="58.5305" y="18.8029" width="471.463" height="353.756" rx="5" fill="#2A2A2A"/>
<rect id="Mask" x="25.5305" y="21.8029" width="536" height="346" rx="8" fill="#E8EAF6"/>
<mask id="mask0_0_372" style="mask-type:alpha" maskUnits="userSpaceOnUse" x="25" y="21" width="537" height="347">
<rect id="Mask_2" x="25.5305" y="21.8029" width="536" height="346" rx="8" fill="white"/>
</mask>
<g mask="url(#mask0_0_372)">
<g id="Group 28">
<rect id="Rectangle" x="22" y="22" width="547" height="59" fill="#5267DF"/>
<g id="Group 7">
<circle id="Oval" opacity="0.244768" cx="64" cy="52" r="16" fill="white"/>
<circle id="Oval Copy" opacity="0.104399" cx="525" cy="52" r="16" fill="white"/>
<g id="Group 6">
<rect id="Rectangle_2" opacity="0.75" x="95" y="42" width="120" height="6" rx="3" fill="white"/>
<rect id="Rectangle Copy 6" opacity="0.25" x="95" y="56" width="64" height="6" rx="3" fill="white"/>
</g>
</g>
</g>
<g id="Group 26">
<rect id="Rectangle_3" x="82.5305" y="114.803" width="261" height="316" rx="8" fill="white"/>
<rect id="Rectangle Copy 7" x="377.53" y="114.803" width="128" height="316" rx="8" fill="white"/>
<rect id="Rectangle_4" opacity="0.5" x="161" y="153" width="120" height="6" rx="3" fill="#242A45"/>
</g>
</g>
</g>
</g>
</g>
<g id="Group 29">
<circle id="Oval_2" cx="130" cy="163" r="16" fill="#F98E5D"/>
<rect id="Rectangle_5" opacity="0.25" x="398" y="137" width="88" height="6" rx="3" fill="#242A45"/>
<rect id="Rectangle Copy 8" opacity="0.25" x="398" y="157" width="88" height="6" rx="3" fill="#242A45"/>
<rect id="Rectangle Copy 9" opacity="0.25" x="398" y="177" width="88" height="6" rx="3" fill="#242A45"/>
<rect id="Rectangle Copy 10" opacity="0.25" x="398" y="197" width="88" height="6" rx="3" fill="#242A45"/>
<rect id="Rectangle Copy 11" opacity="0.25" x="398" y="231" width="88" height="6" rx="3" fill="#242A45"/>
<rect id="Rectangle Copy 12" opacity="0.25" x="398" y="251" width="88" height="6" rx="3" fill="#242A45"/>
<rect id="Rectangle Copy 13" opacity="0.25" x="398" y="271" width="88" height="6" rx="3" fill="#242A45"/>
<rect id="Rectangle Copy 6_2" opacity="0.25" x="161" y="167" width="64" height="6" rx="3" fill="#242A45"/>
</g>
<g id="Group 29 Copy">
<circle id="Oval_3" cx="130" cy="219" r="16" fill="#6AC6D6"/>
<rect id="Rectangle_6" opacity="0.5" x="161" y="209" width="120" height="6" rx="3" fill="#242A45"/>
<rect id="Rectangle Copy 6_3" opacity="0.25" x="161" y="223" width="64" height="6" rx="3" fill="#242A45"/>
</g>
<g id="Group 29 Copy 2">
<circle id="Oval_4" cx="130" cy="275" r="16" fill="#A47ED4"/>
<rect id="Rectangle_7" opacity="0.5" x="161" y="265" width="120" height="6" rx="3" fill="#242A45"/>
<rect id="Rectangle Copy 6_4" opacity="0.25" x="161" y="279" width="64" height="6" rx="3" fill="#242A45"/>
</g>
<g id="Group 29 Copy 3">
<circle id="Oval_5" cx="130" cy="331" r="16" fill="#EC7878"/>
<rect id="Rectangle_8" opacity="0.5" x="161" y="321" width="120" height="6" rx="3" fill="#242A45"/>
<rect id="Rectangle Copy 6_5" opacity="0.25" x="161" y="335" width="64" height="6" rx="3" fill="#242A45"/>
</g>
</g>
<defs>
<filter id="filter0_d_0_372" x="0.5" y="0.5" width="586" height="393" filterUnits="userSpaceOnUse" color-interpolation-filters="sRGB">
<feFlood flood-opacity="0" result="BackgroundImageFix"/>
<feColorMatrix in="SourceAlpha" type="matrix" values="0 0 0 0 0 0 0 0 0 0 0 0 0 0 0 0 0 0 127 0" result="hardAlpha"/>
<feOffset dy="2"/>
<feGaussianBlur stdDeviation="2"/>
<feColorMatrix type="matrix" values="0 0 0 0 0 0 0 0 0 0 0 0 0 0 0 0 0 0 0.5 0"/>
<feBlend mode="normal" in2="BackgroundImageFix" result="effect1_dropShadow_0_372"/>
<feBlend mode="normal" in="SourceGraphic" in2="effect1_dropShadow_0_372" result="shape"/>
</filter>
<linearGradient id="paint0_linear_0_372" x1="852.042" y1="198.406" x2="512.325" y2="-312.444" gradientUnits="userSpaceOnUse">
<stop stop-color="#151515"/>
<stop offset="1" stop-color="#3D3D3D"/>
</linearGradient>
</defs>
</svg>
